<svg width="279" height="249" viewBox="0 0 279 249" fill="none" xmlns="http://www.w3.org/2000/svg">
<path d="M225.347 195.208V102.592C228.689 97.5782 233.007 100.503 234.748 102.592V195.208C231.405 201.336 227.088 197.761 225.347 195.208Z" fill="black" stroke="#FDFDFD" stroke-width="1.17105"/>
<path d="M181.476 244.649V152.034C184.819 147.02 189.136 149.945 190.877 152.034V244.649C187.535 250.777 183.217 247.203 181.476 244.649Z" fill="black" stroke="#FDFDFD" stroke-width="1.17105"/>
<path d="M249.719 225.983V133.912C253.433 128.928 258.231 131.835 260.165 133.912V225.983C256.451 232.075 251.654 228.521 249.719 225.983Z" fill="#9466F6" stroke="#FDFDFD" stroke-width="1.17105"/>
<path d="M269.217 177.863V83.8329C272.436 78.7425 276.594 81.7119 278.27 83.8329V177.863C275.051 184.084 270.894 180.455 269.217 177.863Z" fill="black" stroke="#FDFDFD" stroke-width="1.17105"/>
<path d="M46.7309 128.026C41.16 128.722 36.4248 127.748 27.2328 139.168C20.3853 146.596 6.69025 161.034 6.69025 159.362C6.69025 157.691 7.15449 145.203 7.38661 139.168C8.50078 115.492 34.0804 103.073 46.7309 99.8236H190.529C183.287 120.714 166.621 127.33 159.193 128.026H46.7309Z" fill="#9466F6" stroke="#9466F6" stroke-width="5.85526"/>
<path d="M203.063 213.693V163.556C207.52 156.592 211.42 160.654 212.812 163.556V213.693C209.191 220.657 204.804 216.595 203.063 213.693Z" fill="#9466F6" stroke="#FDFDFD" stroke-width="1.17105"/>
<path d="M16.4394 0.940918L1.81586 24.6171L79.8081 48.2933L82.2453 92.1639H145.614V51.4269L218.035 37.8479L273.744 0.940918H16.4394Z" fill="black" stroke="black" stroke-width="1.17105"/>
<path d="M145.266 135.338H81.8971V236.658L145.266 187.217V135.338Z" fill="black" stroke="black" stroke-width="1.17105"/>
</svg>
